<svg xmlns="http://www.w3.org/2000/svg" xmlns:xlink="http://www.w3.org/1999/xlink" width="500" zoomAndPan="magnify" viewBox="0 0 375 374.999991" height="500" preserveAspectRatio="xMidYMid meet" version="1.0"><defs><g/><clipPath id="121c92c7af"><path d="M 59 128 L 187.582031 128 L 187.582031 217 L 59 217 Z M 59 128 " clip-rule="nonzero"/></clipPath><clipPath id="44e75f0c79"><path d="M 33.832031 115.972656 L 102 115.972656 L 102 228.320312 L 33.832031 228.320312 Z M 33.832031 115.972656 " clip-rule="nonzero"/></clipPath></defs><path fill="#07416b" d="M 104.183594 200.882812 C 103.617188 200.914062 103.042969 200.9375 102.464844 200.9375 C 86.5625 200.9375 73.667969 188.046875 73.667969 172.140625 C 73.667969 156.238281 86.5625 143.34375 102.464844 143.34375 C 103.042969 143.34375 103.617188 143.367188 104.183594 143.398438 C 89.085938 144.292969 77.117188 156.816406 77.117188 172.140625 C 77.117188 187.464844 89.085938 199.988281 104.183594 200.882812 " fill-opacity="1" fill-rule="nonzero"/><g clip-path="url(#121c92c7af)"><path fill="#00adef" d="M 126.277344 147.289062 C 120.199219 141.613281 112.042969 138.132812 103.070312 138.132812 C 84.59375 138.132812 69.558594 152.867188 69.078125 171.230469 C 69.066406 171.53125 69.0625 171.835938 69.0625 172.140625 C 69.0625 190.921875 84.289062 206.148438 103.070312 206.148438 C 112.042969 206.148438 120.199219 202.667969 126.277344 196.992188 L 158.90625 196.992188 L 136.410156 200.832031 C 128.34375 210.195312 116.398438 216.125 103.070312 216.125 C 78.78125 216.125 59.089844 196.433594 59.089844 172.140625 C 59.089844 147.851562 78.78125 128.15625 103.070312 128.15625 C 116.398438 128.15625 128.34375 134.085938 136.410156 143.449219 L 187.207031 147.289062 L 126.277344 147.289062 " fill-opacity="1" fill-rule="nonzero"/></g><path fill="#07416b" d="M 134.867188 205.929688 C 131.570312 210.300781 127.652344 214.171875 123.246094 217.417969 C 123.113281 217.363281 122.984375 217.304688 122.855469 217.242188 L 119.367188 215.585938 C 125.085938 213.4375 130.359375 210.171875 134.867188 205.929688 " fill-opacity="1" fill-rule="nonzero"/><g clip-path="url(#44e75f0c79)"><path fill="#07416b" d="M 56.671875 172.140625 C 56.671875 197.289062 76.785156 217.832031 101.769531 218.523438 L 98.664062 227.261719 C 98.613281 227.402344 98.554688 227.535156 98.5 227.671875 C 95.726562 228.089844 92.890625 228.3125 90 228.3125 C 87.113281 228.3125 84.277344 228.089844 81.503906 227.671875 C 81.449219 227.535156 81.390625 227.402344 81.339844 227.261719 L 78.207031 218.445312 C 76.382812 213.3125 70.519531 210.886719 65.597656 213.222656 L 57.148438 217.242188 C 57.019531 217.304688 56.890625 217.363281 56.757812 217.417969 C 52.164062 214.039062 48.105469 209.976562 44.726562 205.382812 C 44.78125 205.253906 44.839844 205.125 44.902344 204.992188 L 48.917969 196.542969 C 51.257812 191.625 48.828125 185.761719 43.695312 183.9375 L 34.878906 180.800781 C 34.738281 180.75 34.609375 180.691406 34.472656 180.636719 C 34.050781 177.867188 33.832031 175.03125 33.832031 172.140625 C 33.832031 169.25 34.050781 166.414062 34.472656 163.644531 C 34.609375 163.589844 34.738281 163.53125 34.878906 163.480469 L 43.695312 160.34375 C 48.828125 158.519531 51.257812 152.660156 48.917969 147.738281 L 44.902344 139.289062 C 44.839844 139.160156 44.78125 139.027344 44.726562 138.898438 C 48.105469 134.304688 52.164062 130.242188 56.757812 126.867188 C 56.890625 126.921875 57.019531 126.976562 57.148438 127.039062 L 65.597656 131.058594 C 70.519531 133.394531 76.382812 130.96875 78.207031 125.835938 L 81.339844 117.019531 C 81.390625 116.878906 81.449219 116.746094 81.503906 116.609375 C 84.277344 116.191406 87.113281 115.972656 90 115.972656 C 92.890625 115.972656 95.726562 116.191406 98.5 116.609375 C 98.554688 116.746094 98.613281 116.878906 98.664062 117.019531 L 101.769531 125.757812 C 76.785156 126.449219 56.671875 146.988281 56.671875 172.140625 " fill-opacity="1" fill-rule="nonzero"/></g><path fill="#07416b" d="M 119.367188 128.699219 L 122.855469 127.039062 C 122.984375 126.976562 123.113281 126.921875 123.246094 126.867188 C 127.652344 130.105469 131.566406 133.980469 134.863281 138.347656 C 130.359375 134.105469 125.085938 130.839844 119.367188 128.699219 " fill-opacity="1" fill-rule="nonzero"/><g fill="#07416b" fill-opacity="1"><g transform="translate(143.741846, 182.971494)"><g><path d="M 1.984375 -23.1875 L 15.90625 -23.1875 C 18.21875 -23.1875 19.898438 -22.660156 20.953125 -21.609375 C 22.003906 -20.566406 22.53125 -18.882812 22.53125 -16.5625 L 22.53125 -13.578125 C 22.53125 -11.742188 22.222656 -10.316406 21.609375 -9.296875 C 21.003906 -8.285156 20.039062 -7.613281 18.71875 -7.28125 L 22.859375 0 L 16.390625 0 L 12.59375 -6.953125 L 7.953125 -6.953125 L 7.953125 0 L 1.984375 0 Z M 16.5625 -16.5625 C 16.5625 -17.882812 15.898438 -18.546875 14.578125 -18.546875 L 7.953125 -18.546875 L 7.953125 -11.59375 L 14.578125 -11.59375 C 15.898438 -11.59375 16.5625 -12.253906 16.5625 -13.578125 Z M 16.5625 -16.5625 "/></g></g></g><g fill="#07416b" fill-opacity="1"><g transform="translate(167.581217, 182.971494)"><g><path d="M 20.375 0 L 1.984375 0 L 1.984375 -23.1875 L 20.375 -23.1875 L 20.375 -18.546875 L 7.953125 -18.546875 L 7.953125 -14.078125 L 17.71875 -14.078125 L 17.71875 -9.4375 L 7.953125 -9.4375 L 7.953125 -4.640625 L 20.375 -4.640625 Z M 20.375 0 "/></g></g></g><g fill="#07416b" fill-opacity="1"><g transform="translate(188.606219, 182.971494)"><g><path d="M 6.125 0 L -0.328125 0 L 8.453125 -23.1875 L 15.078125 -23.1875 L 23.84375 0 L 17.390625 0 L 15.90625 -4.140625 L 7.625 -4.140625 Z M 9.109375 -8.453125 L 14.40625 -8.453125 L 11.765625 -16.234375 Z M 9.109375 -8.453125 "/></g></g></g><g fill="#07416b" fill-opacity="1"><g transform="translate(165.037479, 222.456721)"><g><path d="M 1.296875 -4.796875 C 7.335938 -4.460938 11.425781 -4.296875 13.5625 -4.296875 C 14.070312 -4.296875 14.472656 -4.445312 14.765625 -4.75 C 15.066406 -5.050781 15.21875 -5.453125 15.21875 -5.953125 L 15.21875 -8.9375 L 7.609375 -8.9375 C 5.296875 -8.9375 3.613281 -9.457031 2.5625 -10.5 C 1.519531 -11.550781 1 -13.234375 1 -15.546875 L 1 -16.546875 C 1 -18.859375 1.519531 -20.539062 2.5625 -21.59375 C 3.613281 -22.644531 5.296875 -23.171875 7.609375 -23.171875 L 19.234375 -23.171875 L 19.234375 -18.53125 L 8.9375 -18.53125 C 7.613281 -18.53125 6.953125 -17.867188 6.953125 -16.546875 L 6.953125 -15.890625 C 6.953125 -14.566406 7.613281 -13.90625 8.9375 -13.90625 L 14.890625 -13.90625 C 17.054688 -13.90625 18.644531 -13.394531 19.65625 -12.375 C 20.675781 -11.363281 21.1875 -9.773438 21.1875 -7.609375 L 21.1875 -5.953125 C 21.1875 -3.796875 20.675781 -2.207031 19.65625 -1.1875 C 18.644531 -0.175781 17.054688 0.328125 14.890625 0.328125 C 13.765625 0.328125 12.570312 0.304688 11.3125 0.265625 L 8.265625 0.125 C 6.015625 0.0195312 3.691406 -0.128906 1.296875 -0.328125 Z M 1.296875 -4.796875 "/></g></g></g><g fill="#07416b" fill-opacity="1"><g transform="translate(187.201645, 222.456721)"><g><path d="M 20.359375 0 L 1.984375 0 L 1.984375 -23.171875 L 20.359375 -23.171875 L 20.359375 -18.53125 L 7.9375 -18.53125 L 7.9375 -14.0625 L 17.703125 -14.0625 L 17.703125 -9.4375 L 7.9375 -9.4375 L 7.9375 -4.640625 L 20.359375 -4.640625 Z M 20.359375 0 "/></g></g></g><g fill="#07416b" fill-opacity="1"><g transform="translate(208.207982, 222.456721)"><g><path d="M 1.984375 -23.171875 L 15.890625 -23.171875 C 18.203125 -23.171875 19.878906 -22.644531 20.921875 -21.59375 C 21.972656 -20.539062 22.5 -18.859375 22.5 -16.546875 L 22.5 -13.5625 C 22.5 -11.738281 22.195312 -10.316406 21.59375 -9.296875 C 20.988281 -8.285156 20.023438 -7.613281 18.703125 -7.28125 L 22.828125 0 L 16.375 0 L 12.578125 -6.953125 L 7.9375 -6.953125 L 7.9375 0 L 1.984375 0 Z M 16.546875 -16.546875 C 16.546875 -17.867188 15.882812 -18.53125 14.5625 -18.53125 L 7.9375 -18.53125 L 7.9375 -11.578125 L 14.5625 -11.578125 C 15.882812 -11.578125 16.546875 -12.238281 16.546875 -13.5625 Z M 16.546875 -16.546875 "/></g></g></g><g fill="#07416b" fill-opacity="1"><g transform="translate(232.026189, 222.456721)"><g><path d="M 11.75 -6.953125 L 17.375 -23.171875 L 23.828125 -23.171875 L 15.0625 0 L 8.4375 0 L -0.328125 -23.171875 L 6.125 -23.171875 Z M 11.75 -6.953125 "/></g></g></g><g fill="#07416b" fill-opacity="1"><g transform="translate(255.513589, 222.456721)"><g><path d="M 12.90625 0 L 1 0 L 1 -4.640625 L 3.96875 -4.640625 L 3.96875 -18.53125 L 1 -18.53125 L 1 -23.171875 L 12.90625 -23.171875 L 12.90625 -18.53125 L 9.921875 -18.53125 L 9.921875 -4.640625 L 12.90625 -4.640625 Z M 12.90625 0 "/></g></g></g><g fill="#07416b" fill-opacity="1"><g transform="translate(269.407544, 222.456721)"><g><path d="M 19.859375 -0.328125 C 14.929688 0.109375 10.847656 0.328125 7.609375 0.328125 C 5.453125 0.328125 3.863281 -0.175781 2.84375 -1.1875 C 1.832031 -2.207031 1.328125 -3.796875 1.328125 -5.953125 L 1.328125 -16.546875 C 1.328125 -18.859375 1.847656 -20.539062 2.890625 -21.59375 C 3.941406 -22.644531 5.625 -23.171875 7.9375 -23.171875 L 19.859375 -23.171875 L 19.859375 -18.53125 L 9.265625 -18.53125 C 7.941406 -18.53125 7.28125 -17.867188 7.28125 -16.546875 L 7.28125 -5.953125 C 7.28125 -5.453125 7.425781 -5.050781 7.71875 -4.75 C 8.019531 -4.445312 8.398438 -4.296875 8.859375 -4.296875 C 9.328125 -4.296875 9.835938 -4.300781 10.390625 -4.3125 C 10.941406 -4.320312 11.515625 -4.335938 12.109375 -4.359375 C 12.703125 -4.390625 13.300781 -4.414062 13.90625 -4.4375 C 14.519531 -4.457031 15.304688 -4.5 16.265625 -4.5625 C 17.222656 -4.632812 18.421875 -4.710938 19.859375 -4.796875 Z M 19.859375 -0.328125 "/></g></g></g><g fill="#07416b" fill-opacity="1"><g transform="translate(289.917667, 222.456721)"><g><path d="M 20.359375 0 L 1.984375 0 L 1.984375 -23.171875 L 20.359375 -23.171875 L 20.359375 -18.53125 L 7.9375 -18.53125 L 7.9375 -14.0625 L 17.703125 -14.0625 L 17.703125 -9.4375 L 7.9375 -9.4375 L 7.9375 -4.640625 L 20.359375 -4.640625 Z M 20.359375 0 "/></g></g></g><g fill="#07416b" fill-opacity="1"><g transform="translate(310.924003, 222.456721)"><g><path d="M 1.296875 -4.796875 C 7.335938 -4.460938 11.425781 -4.296875 13.5625 -4.296875 C 14.070312 -4.296875 14.472656 -4.445312 14.765625 -4.75 C 15.066406 -5.050781 15.21875 -5.453125 15.21875 -5.953125 L 15.21875 -8.9375 L 7.609375 -8.9375 C 5.296875 -8.9375 3.613281 -9.457031 2.5625 -10.5 C 1.519531 -11.550781 1 -13.234375 1 -15.546875 L 1 -16.546875 C 1 -18.859375 1.519531 -20.539062 2.5625 -21.59375 C 3.613281 -22.644531 5.296875 -23.171875 7.609375 -23.171875 L 19.234375 -23.171875 L 19.234375 -18.53125 L 8.9375 -18.53125 C 7.613281 -18.53125 6.953125 -17.867188 6.953125 -16.546875 L 6.953125 -15.890625 C 6.953125 -14.566406 7.613281 -13.90625 8.9375 -13.90625 L 14.890625 -13.90625 C 17.054688 -13.90625 18.644531 -13.394531 19.65625 -12.375 C 20.675781 -11.363281 21.1875 -9.773438 21.1875 -7.609375 L 21.1875 -5.953125 C 21.1875 -3.796875 20.675781 -2.207031 19.65625 -1.1875 C 18.644531 -0.175781 17.054688 0.328125 14.890625 0.328125 C 13.765625 0.328125 12.570312 0.304688 11.3125 0.265625 L 8.265625 0.125 C 6.015625 0.0195312 3.691406 -0.128906 1.296875 -0.328125 Z M 1.296875 -4.796875 "/></g></g></g></svg>