<svg xmlns="http://www.w3.org/2000/svg" xmlns:xlink="http://www.w3.org/1999/xlink" width="200" zoomAndPan="magnify" viewBox="0 0 150 74.999997" height="100" preserveAspectRatio="xMidYMid meet" version="1.0"><defs><g/><clipPath id="b1baaff387"><path d="M 17 15 L 73.5 15 L 73.5 55 L 17 55 Z M 17 15 " clip-rule="nonzero"/></clipPath><clipPath id="32a7e3bacb"><path d="M 6 10.546875 L 36 10.546875 L 36 59.988281 L 6 59.988281 Z M 6 10.546875 " clip-rule="nonzero"/></clipPath></defs><path fill="#07416b" d="M 37.039062 47.945312 C 36.785156 47.960938 36.535156 47.96875 36.277344 47.96875 C 29.261719 47.96875 23.574219 42.28125 23.574219 35.265625 C 23.574219 28.25 29.261719 22.558594 36.277344 22.558594 C 36.535156 22.558594 36.785156 22.570312 37.039062 22.585938 C 30.375 22.980469 25.097656 28.503906 25.097656 35.265625 C 25.097656 42.027344 30.375 47.550781 37.039062 47.945312 " fill-opacity="1" fill-rule="nonzero"/><g clip-path="url(#b1baaff387)"><path fill="#00adef" d="M 46.78125 24.300781 C 44.101562 21.796875 40.503906 20.261719 36.546875 20.261719 C 28.394531 20.261719 21.761719 26.761719 21.546875 34.863281 C 21.542969 34.996094 21.542969 35.128906 21.542969 35.265625 C 21.542969 43.550781 28.261719 50.269531 36.546875 50.269531 C 40.503906 50.269531 44.101562 48.734375 46.78125 46.226562 L 61.179688 46.226562 L 51.253906 47.921875 C 47.695312 52.054688 42.425781 54.667969 36.546875 54.667969 C 25.828125 54.667969 17.140625 45.980469 17.140625 35.265625 C 17.140625 24.546875 25.828125 15.859375 36.546875 15.859375 C 42.425781 15.859375 47.695312 18.476562 51.253906 22.609375 L 73.664062 24.300781 L 46.78125 24.300781 " fill-opacity="1" fill-rule="nonzero"/></g><path fill="#07416b" d="M 50.574219 50.171875 C 49.117188 52.101562 47.390625 53.808594 45.445312 55.238281 C 45.386719 55.214844 45.332031 55.1875 45.273438 55.160156 L 43.734375 54.429688 C 46.257812 53.484375 48.585938 52.042969 50.574219 50.171875 " fill-opacity="1" fill-rule="nonzero"/><g clip-path="url(#32a7e3bacb)"><path fill="#07416b" d="M 16.074219 35.265625 C 16.074219 46.359375 24.949219 55.421875 35.972656 55.726562 L 34.601562 59.582031 C 34.578125 59.644531 34.554688 59.703125 34.527344 59.761719 C 33.304688 59.949219 32.054688 60.046875 30.78125 60.046875 C 29.503906 60.046875 28.253906 59.949219 27.03125 59.761719 C 27.007812 59.703125 26.980469 59.644531 26.960938 59.582031 L 25.578125 55.695312 C 24.769531 53.429688 22.183594 52.359375 20.015625 53.390625 L 16.285156 55.160156 C 16.230469 55.1875 16.171875 55.214844 16.113281 55.238281 C 14.085938 53.75 12.296875 51.957031 10.804688 49.929688 C 10.832031 49.875 10.855469 49.816406 10.882812 49.757812 L 12.65625 46.03125 C 13.6875 43.859375 12.617188 41.273438 10.351562 40.46875 L 6.460938 39.085938 C 6.398438 39.0625 6.34375 39.039062 6.28125 39.011719 C 6.097656 37.789062 6 36.539062 6 35.265625 C 6 33.992188 6.097656 32.738281 6.28125 31.515625 C 6.34375 31.492188 6.398438 31.464844 6.460938 31.445312 L 10.351562 30.0625 C 12.617188 29.257812 13.6875 26.671875 12.65625 24.5 L 10.882812 20.773438 C 10.855469 20.714844 10.832031 20.65625 10.804688 20.597656 C 12.296875 18.574219 14.085938 16.78125 16.113281 15.289062 C 16.171875 15.316406 16.230469 15.339844 16.285156 15.367188 L 20.015625 17.140625 C 22.183594 18.171875 24.769531 17.101562 25.578125 14.835938 L 26.960938 10.949219 C 26.980469 10.886719 27.007812 10.828125 27.03125 10.765625 C 28.253906 10.582031 29.503906 10.484375 30.78125 10.484375 C 32.054688 10.484375 33.304688 10.582031 34.527344 10.765625 C 34.554688 10.828125 34.578125 10.886719 34.601562 10.949219 L 35.972656 14.804688 C 24.949219 15.109375 16.074219 24.167969 16.074219 35.265625 " fill-opacity="1" fill-rule="nonzero"/></g><path fill="#07416b" d="M 43.734375 16.097656 L 45.273438 15.367188 C 45.332031 15.339844 45.386719 15.316406 45.445312 15.289062 C 47.390625 16.722656 49.117188 18.429688 50.570312 20.355469 C 48.582031 18.484375 46.257812 17.042969 43.734375 16.097656 " fill-opacity="1" fill-rule="nonzero"/><g fill="#07416b" fill-opacity="1"><g transform="translate(54.486135, 40.044639)"><g><path d="M 0.875 -10.21875 L 7.015625 -10.21875 C 8.035156 -10.21875 8.773438 -9.988281 9.234375 -9.53125 C 9.703125 -9.070312 9.9375 -8.328125 9.9375 -7.296875 L 9.9375 -5.984375 C 9.9375 -5.179688 9.800781 -4.554688 9.53125 -4.109375 C 9.257812 -3.660156 8.832031 -3.363281 8.25 -3.21875 L 10.078125 0 L 7.234375 0 L 5.546875 -3.0625 L 3.5 -3.0625 L 3.5 0 L 0.875 0 Z M 7.296875 -7.296875 C 7.296875 -7.890625 7.003906 -8.1875 6.421875 -8.1875 L 3.5 -8.1875 L 3.5 -5.109375 L 6.421875 -5.109375 C 7.003906 -5.109375 7.296875 -5.398438 7.296875 -5.984375 Z M 7.296875 -7.296875 "/></g></g></g><g fill="#07416b" fill-opacity="1"><g transform="translate(65.002815, 40.044639)"><g><path d="M 8.984375 0 L 0.875 0 L 0.875 -10.21875 L 8.984375 -10.21875 L 8.984375 -8.1875 L 3.5 -8.1875 L 3.5 -6.203125 L 7.8125 -6.203125 L 7.8125 -4.15625 L 3.5 -4.15625 L 3.5 -2.046875 L 8.984375 -2.046875 Z M 8.984375 0 "/></g></g></g><g fill="#07416b" fill-opacity="1"><g transform="translate(74.277942, 40.044639)"><g><path d="M 2.703125 0 L -0.140625 0 L 3.71875 -10.21875 L 6.640625 -10.21875 L 10.515625 0 L 7.671875 0 L 7.015625 -1.828125 L 3.359375 -1.828125 Z M 4.015625 -3.71875 L 6.359375 -3.71875 L 5.1875 -7.15625 Z M 4.015625 -3.71875 "/></g></g></g><g fill="#07416b" fill-opacity="1"><g transform="translate(63.880661, 57.463452)"><g><path d="M 0.5625 -2.109375 C 3.226562 -1.960938 5.035156 -1.890625 5.984375 -1.890625 C 6.203125 -1.890625 6.378906 -1.957031 6.515625 -2.09375 C 6.648438 -2.226562 6.71875 -2.40625 6.71875 -2.625 L 6.71875 -3.9375 L 3.359375 -3.9375 C 2.335938 -3.9375 1.59375 -4.164062 1.125 -4.625 C 0.664062 -5.09375 0.4375 -5.835938 0.4375 -6.859375 L 0.4375 -7.296875 C 0.4375 -8.316406 0.664062 -9.054688 1.125 -9.515625 C 1.59375 -9.984375 2.335938 -10.21875 3.359375 -10.21875 L 8.484375 -10.21875 L 8.484375 -8.171875 L 3.9375 -8.171875 C 3.351562 -8.171875 3.0625 -7.878906 3.0625 -7.296875 L 3.0625 -7 C 3.0625 -6.414062 3.351562 -6.125 3.9375 -6.125 L 6.5625 -6.125 C 7.519531 -6.125 8.222656 -5.898438 8.671875 -5.453125 C 9.117188 -5.003906 9.34375 -4.304688 9.34375 -3.359375 L 9.34375 -2.625 C 9.34375 -1.675781 9.117188 -0.976562 8.671875 -0.53125 C 8.222656 -0.0820312 7.519531 0.140625 6.5625 0.140625 C 6.070312 0.140625 5.546875 0.128906 4.984375 0.109375 L 3.65625 0.0625 C 2.65625 0.0078125 1.625 -0.0546875 0.5625 -0.140625 Z M 0.5625 -2.109375 "/></g></g></g><g fill="#07416b" fill-opacity="1"><g transform="translate(73.658328, 57.463452)"><g><path d="M 8.96875 0 L 0.875 0 L 0.875 -10.21875 L 8.96875 -10.21875 L 8.96875 -8.171875 L 3.5 -8.171875 L 3.5 -6.203125 L 7.8125 -6.203125 L 7.8125 -4.15625 L 3.5 -4.15625 L 3.5 -2.046875 L 8.96875 -2.046875 Z M 8.96875 0 "/></g></g></g><g fill="#07416b" fill-opacity="1"><g transform="translate(82.925221, 57.463452)"><g><path d="M 0.875 -10.21875 L 7 -10.21875 C 8.019531 -10.21875 8.757812 -9.984375 9.21875 -9.515625 C 9.6875 -9.054688 9.921875 -8.316406 9.921875 -7.296875 L 9.921875 -5.984375 C 9.921875 -5.171875 9.785156 -4.539062 9.515625 -4.09375 C 9.253906 -3.644531 8.832031 -3.347656 8.25 -3.203125 L 10.0625 0 L 7.21875 0 L 5.546875 -3.0625 L 3.5 -3.0625 L 3.5 0 L 0.875 0 Z M 7.296875 -7.296875 C 7.296875 -7.878906 7.003906 -8.171875 6.421875 -8.171875 L 3.5 -8.171875 L 3.5 -5.109375 L 6.421875 -5.109375 C 7.003906 -5.109375 7.296875 -5.398438 7.296875 -5.984375 Z M 7.296875 -7.296875 "/></g></g></g><g fill="#07416b" fill-opacity="1"><g transform="translate(93.432565, 57.463452)"><g><path d="M 5.1875 -3.0625 L 7.65625 -10.21875 L 10.5 -10.21875 L 6.640625 0 L 3.71875 0 L -0.140625 -10.21875 L 2.703125 -10.21875 Z M 5.1875 -3.0625 "/></g></g></g><g fill="#07416b" fill-opacity="1"><g transform="translate(103.793973, 57.463452)"><g><path d="M 5.6875 0 L 0.4375 0 L 0.4375 -2.046875 L 1.75 -2.046875 L 1.75 -8.171875 L 0.4375 -8.171875 L 0.4375 -10.21875 L 5.6875 -10.21875 L 5.6875 -8.171875 L 4.375 -8.171875 L 4.375 -2.046875 L 5.6875 -2.046875 Z M 5.6875 0 "/></g></g></g><g fill="#07416b" fill-opacity="1"><g transform="translate(109.923257, 57.463452)"><g><path d="M 8.75 -0.140625 C 6.582031 0.046875 4.785156 0.140625 3.359375 0.140625 C 2.398438 0.140625 1.695312 -0.0820312 1.25 -0.53125 C 0.800781 -0.976562 0.578125 -1.675781 0.578125 -2.625 L 0.578125 -7.296875 C 0.578125 -8.316406 0.804688 -9.054688 1.265625 -9.515625 C 1.734375 -9.984375 2.476562 -10.21875 3.5 -10.21875 L 8.75 -10.21875 L 8.75 -8.171875 L 4.09375 -8.171875 C 3.5 -8.171875 3.203125 -7.878906 3.203125 -7.296875 L 3.203125 -2.625 C 3.203125 -2.40625 3.269531 -2.226562 3.40625 -2.09375 C 3.539062 -1.957031 3.707031 -1.890625 3.90625 -1.890625 C 4.113281 -1.890625 4.335938 -1.890625 4.578125 -1.890625 C 4.828125 -1.898438 5.082031 -1.910156 5.34375 -1.921875 C 5.601562 -1.929688 5.863281 -1.941406 6.125 -1.953125 C 6.394531 -1.960938 6.742188 -1.984375 7.171875 -2.015625 C 7.597656 -2.046875 8.125 -2.078125 8.75 -2.109375 Z M 8.75 -0.140625 "/></g></g></g><g fill="#07416b" fill-opacity="1"><g transform="translate(118.971247, 57.463452)"><g><path d="M 8.96875 0 L 0.875 0 L 0.875 -10.21875 L 8.96875 -10.21875 L 8.96875 -8.171875 L 3.5 -8.171875 L 3.5 -6.203125 L 7.8125 -6.203125 L 7.8125 -4.15625 L 3.5 -4.15625 L 3.5 -2.046875 L 8.96875 -2.046875 Z M 8.96875 0 "/></g></g></g><g fill="#07416b" fill-opacity="1"><g transform="translate(128.23814, 57.463452)"><g><path d="M 0.5625 -2.109375 C 3.226562 -1.960938 5.035156 -1.890625 5.984375 -1.890625 C 6.203125 -1.890625 6.378906 -1.957031 6.515625 -2.09375 C 6.648438 -2.226562 6.71875 -2.40625 6.71875 -2.625 L 6.71875 -3.9375 L 3.359375 -3.9375 C 2.335938 -3.9375 1.59375 -4.164062 1.125 -4.625 C 0.664062 -5.09375 0.4375 -5.835938 0.4375 -6.859375 L 0.4375 -7.296875 C 0.4375 -8.316406 0.664062 -9.054688 1.125 -9.515625 C 1.59375 -9.984375 2.335938 -10.21875 3.359375 -10.21875 L 8.484375 -10.21875 L 8.484375 -8.171875 L 3.9375 -8.171875 C 3.351562 -8.171875 3.0625 -7.878906 3.0625 -7.296875 L 3.0625 -7 C 3.0625 -6.414062 3.351562 -6.125 3.9375 -6.125 L 6.5625 -6.125 C 7.519531 -6.125 8.222656 -5.898438 8.671875 -5.453125 C 9.117188 -5.003906 9.34375 -4.304688 9.34375 -3.359375 L 9.34375 -2.625 C 9.34375 -1.675781 9.117188 -0.976562 8.671875 -0.53125 C 8.222656 -0.0820312 7.519531 0.140625 6.5625 0.140625 C 6.070312 0.140625 5.546875 0.128906 4.984375 0.109375 L 3.65625 0.0625 C 2.65625 0.0078125 1.625 -0.0546875 0.5625 -0.140625 Z M 0.5625 -2.109375 "/></g></g></g></svg>